<?xml version="1.0" standalone="no"?>
<!DOCTYPE svg PUBLIC "-//W3C//DTD SVG 20010904//EN"
 "http://www.w3.org/TR/2001/REC-SVG-20010904/DTD/svg10.dtd">
<svg version="1.0" xmlns="http://www.w3.org/2000/svg"
 width="158px" height="158px" viewBox="0 0 500.000000 500.000000"
 preserveAspectRatio="xMidYMid meet">
<metadata>
Created by potrace 1.16, written by Peter Selinger 2001-2019
</metadata>
<g transform="translate(0.000000,500.000000) scale(0.100000,-0.100000)"
fill="#fffff3" stroke="none">
<path d="M1423 4398 c8 -341 18 -548 26 -548 3 0 60 21 126 46 124 47 279 104
400 149 39 14 79 30 90 35 11 5 38 14 60 21 22 6 45 15 50 19 6 4 28 13 50 20
22 7 60 22 85 33 58 26 104 26 160 0 25 -11 63 -26 85 -33 22 -7 45 -16 50
-20 6 -4 28 -13 50 -20 22 -7 54 -18 70 -26 17 -7 73 -29 125 -49 52 -20 109
-42 125 -49 17 -8 48 -19 70 -26 22 -7 45 -16 50 -20 6 -4 30 -14 55 -23 25
-9 81 -29 124 -46 44 -17 81 -29 82 -28 7 6 16 837 9 837 -4 0 -52 -23 -107
-50 -101 -51 -200 -114 -250 -159 l-28 -25 0 -203 c0 -112 -4 -203 -8 -203 -4
0 -12 4 -17 9 -6 5 -28 14 -50 21 -22 7 -53 18 -70 26 -16 7 -73 29 -125 49
-52 20 -104 40 -115 45 -11 5 -61 24 -112 43 l-92 34 -48 -19 c-26 -11 -70
-26 -98 -35 -27 -8 -54 -18 -60 -22 -5 -4 -59 -25 -120 -46 -60 -21 -114 -41
-120 -45 -16 -11 -107 -40 -127 -40 -17 0 -18 13 -18 199 l0 199 -52 39 c-77
57 -196 129 -248 149 -25 9 -49 21 -54 26 -26 23 -29 -3 -23 -264z"/>
<path d="M737 4425 c-9 -22 -9 -644 0 -753 5 -70 9 -83 22 -78 57 19 141 49
166 60 17 7 66 26 110 41 44 15 84 31 88 35 5 4 9 123 10 264 l2 256 -45 43
c-25 23 -59 52 -76 64 -89 62 -264 105 -277 68z"/>
<path d="M3940 4430 c-85 -21 -182 -75 -248 -140 l-32 -33 2 -270 3 -270 95
-37 c52 -20 102 -39 110 -43 8 -3 33 -11 55 -18 22 -6 45 -15 50 -19 6 -4 24
-12 41 -18 l31 -10 7 51 c8 68 8 629 -1 735 l-6 82 -36 -1 c-20 -1 -52 -5 -71
-9z"/>
<path d="M143 4084 c-8 -23 4 -683 16 -834 6 -69 15 -235 21 -370 6 -135 17
-333 25 -440 8 -107 17 -249 20 -315 8 -173 25 -416 31 -442 4 -22 7 -22 85
-16 81 6 354 -7 679 -33 214 -17 668 -61 695 -68 11 -3 49 -7 85 -10 l65 -4
-45 13 c-25 8 -85 26 -135 40 -49 15 -99 30 -110 35 -20 9 -57 18 -240 60 -49
12 -103 25 -120 30 -16 5 -76 16 -133 25 -57 8 -122 19 -145 25 -45 10 -322
30 -372 27 l-30 -2 -7 95 c-4 52 -12 298 -19 545 -6 248 -13 532 -16 633 -6
207 -12 194 83 162 32 -12 82 -28 109 -37 28 -9 52 -18 55 -20 4 -3 17 -388
35 -1013 8 -266 2 -246 83 -254 111 -11 394 -73 597 -129 50 -14 117 -33 150
-42 33 -9 78 -22 100 -30 22 -8 87 -28 145 -45 58 -18 138 -43 178 -57 40 -14
74 -24 77 -22 13 14 -449 299 -605 372 -129 61 -276 101 -314 86 -5 -2 -14 10
-19 26 -9 29 -31 955 -23 963 5 4 130 -33 161 -48 11 -5 76 -28 145 -50 69
-22 134 -45 145 -50 11 -5 38 -14 60 -20 22 -6 49 -15 60 -20 11 -5 74 -27
140 -49 66 -22 212 -72 325 -111 l205 -70 115 36 c63 20 167 54 230 74 63 20
196 63 295 95 99 31 189 61 200 65 11 5 72 25 135 45 63 20 152 50 196 65 l82
29 5 -32 c5 -35 -11 -905 -18 -924 -2 -7 -21 -15 -42 -18 -204 -33 -412 -130
-723 -338 -58 -39 -122 -82 -142 -96 -21 -13 -36 -26 -34 -29 4 -4 150 42 236
73 38 14 193 62 305 93 39 11 102 29 140 40 198 57 508 122 585 122 32 0 50 5
53 14 3 8 11 171 17 363 6 191 15 404 20 473 6 69 10 184 10 256 l0 132 113
37 c61 20 118 39 126 42 12 5 13 -58 7 -433 -6 -438 -21 -840 -34 -944 l-7
-55 -175 -7 c-127 -4 -222 -15 -345 -37 -187 -33 -349 -68 -380 -81 -11 -5
-49 -15 -85 -23 -60 -14 -140 -38 -295 -87 l-60 -19 55 5 c30 2 87 9 125 15
39 5 167 19 285 30 118 11 256 24 305 29 158 15 434 31 643 37 196 6 202 6
206 27 8 44 47 642 56 871 5 132 14 301 20 375 10 135 29 739 31 1010 l1 145
-26 3 c-48 6 -208 -64 -270 -118 l-34 -30 -7 -236 c-8 -263 -10 -255 64 -269
50 -9 26 -25 -99 -64 -58 -19 -137 -44 -177 -57 -39 -13 -77 -24 -83 -24 -7 0
-26 -6 -43 -14 -39 -17 -224 -76 -238 -76 -6 0 -25 -6 -42 -14 -18 -8 -59 -22
-92 -32 -72 -21 -67 -19 -85 -27 -8 -3 -69 -22 -135 -42 -66 -21 -129 -41
-140 -46 -11 -4 -47 -16 -80 -25 -33 -9 -64 -20 -70 -24 -5 -4 -32 -12 -60
-19 -27 -6 -66 -18 -85 -25 -19 -8 -82 -29 -140 -47 -58 -18 -172 -54 -255
-82 -146 -48 -151 -49 -200 -37 -27 7 -57 17 -65 21 -8 5 -166 58 -350 119
-184 61 -344 115 -355 120 -18 8 -181 62 -340 112 -33 11 -69 23 -80 28 -11 5
-53 20 -92 33 l-73 23 0 -165 c0 -153 1 -166 21 -187 33 -35 35 -92 5 -133
-19 -25 -24 -41 -19 -65 10 -57 45 -171 59 -191 8 -11 14 -23 14 -27 0 -5 -49
-8 -110 -8 -67 0 -110 4 -110 10 0 6 9 29 20 53 43 92 52 197 20 237 -27 34
-25 77 5 116 24 32 25 37 25 206 l0 173 -37 13 c-21 7 -67 21 -103 32 -36 11
-74 24 -85 29 -11 5 -74 26 -140 47 -66 21 -131 44 -145 51 -25 13 -24 13 28
35 l53 22 -7 230 -7 230 -30 25 c-47 40 -106 71 -182 97 -83 28 -113 30 -122
8z"/>
<path d="M2370 3582 c-43 -5 -74 -35 -66 -65 15 -62 177 -62 192 0 4 16 1 30
-9 40 -17 17 -78 30 -117 25z"/>
<path d="M2315 1749 c-68 -14 -125 -55 -153 -109 -12 -25 -18 -46 -13 -48 6
-2 27 8 48 22 21 14 41 26 45 26 4 0 19 5 35 12 38 15 51 18 104 25 63 7 191
-31 236 -70 36 -32 41 -25 19 27 -37 88 -186 141 -321 115z"/>
<path d="M191 1033 c0 -260 2 -303 18 -341 28 -70 68 -112 140 -146 64 -30 70
-31 201 -30 116 1 141 4 180 22 68 32 110 67 138 114 24 41 26 55 34 258 5
118 7 260 6 315 l-3 100 -107 3 -108 3 0 -279 c0 -303 -3 -319 -57 -362 -32
-25 -120 -27 -163 -5 -53 28 -55 37 -58 353 l-4 292 -109 0 -109 0 1 -297z"/>
<path d="M995 1319 c-3 -8 -4 -190 -3 -404 l3 -390 112 -3 112 -3 3 148 3 148
110 6 c81 4 122 11 155 26 83 38 130 111 133 207 4 130 -32 197 -132 244 -54
25 -64 26 -273 30 -177 3 -219 2 -223 -9z m380 -176 c36 -40 36 -110 -2 -147
-31 -31 -55 -39 -109 -34 l-39 3 -3 103 -3 102 65 0 c58 0 68 -3 91 -27z"/>
<path d="M1677 1323 c-4 -3 -7 -39 -7 -80 l0 -73 125 0 125 0 0 -325 0 -326
113 3 112 3 3 323 2 322 125 0 125 0 0 80 0 80 -358 0 c-197 0 -362 -3 -365
-7z"/>
<path d="M2562 1273 c-11 -32 -44 -125 -72 -208 -29 -82 -60 -170 -70 -195 -9
-25 -20 -57 -24 -72 -3 -15 -11 -40 -17 -55 -13 -31 -79 -216 -79 -220 0 -2
49 -3 109 -3 l109 0 15 38 c8 20 18 53 22 72 12 59 15 60 161 60 153 0 135 11
171 -105 l19 -60 112 -3 c62 -1 112 1 112 5 1 15 -253 778 -263 791 -7 8 -49
12 -147 12 l-138 0 -20 -57z m213 -303 c41 -145 45 -135 -60 -135 -103 0 -97
-9 -65 105 12 41 30 107 40 147 26 102 32 107 46 38 7 -33 24 -103 39 -155z"/>
<path d="M3200 925 l0 -405 310 0 310 0 0 80 0 80 -196 2 -196 3 -1 88 c-2 81
-1 87 18 88 11 0 82 0 158 0 l137 1 0 74 0 74 -155 0 -155 0 0 80 0 80 185 0
185 0 0 80 0 80 -300 0 -300 0 0 -405z"/>
<path d="M3920 926 l0 -406 228 0 c258 0 316 11 380 73 52 50 66 83 66 162 0
85 -18 124 -75 162 l-41 27 30 25 c86 73 94 193 19 278 -62 71 -91 77 -364 81
l-243 4 0 -406z m400 224 c26 -26 27 -89 1 -121 -16 -20 -30 -24 -95 -27 l-76
-4 0 86 0 86 75 0 c62 0 79 -4 95 -20z m19 -314 c37 -37 36 -99 -2 -132 -25
-21 -38 -24 -108 -24 l-79 0 0 93 0 92 82 -2 c73 -1 84 -4 107 -27z"/>
</g>
</svg>
